<?xml version="1.0" encoding="UTF-8" standalone="no"?>
<svg
   version="1.1"
   width="360"
   height="67"
   id="svg18"
   xmlns="http://www.w3.org/2000/svg"
   xmlns:svg="http://www.w3.org/2000/svg">
  <defs
     id="defs2" />
  <g
     id="g16"
     transform="translate(-120.39752,-267.13489)">
    <path
       stroke-width="0"
       fill="#000000"
       opacity="1"
       d="M 157.83649,268.74982 C 160.54816,268.74982 163.23434,268.74982 165.89502,268.74982 C 168.55569,268.74982 171.19086,268.74982 173.80051,268.74982 C 174.17957,270.16113 174.52216,271.69611 174.82834,273.35474 C 175.13449,275.01337 175.40421,276.79565 175.63745,278.70166 C 175.88531,280.6076 176.0712,282.57904 176.19513,284.61597 C 176.31903,286.65283 176.38098,288.75525 176.38098,290.9231 C 176.38098,293.07642 176.38098,295.2334 176.38098,297.39398 C 176.38098,299.55457 176.38098,301.71875 176.38098,303.88666 C 176.38098,306.38916 176.38098,308.87708 176.38098,311.35046 C 176.38098,313.82385 176.38098,316.28271 176.38098,318.72705 C 176.38098,321.17133 176.26437,323.58289 176.0311,325.96173 C 175.79785,328.34058 175.44794,330.68665 174.98141,333 C 172.34259,333 169.67828,333 166.98846,333 C 165.64355,333 164.29224,333 162.93457,333 C 161.5769,333 160.21286,333 158.84244,333 C 157.85834,330.74487 156.87061,328.54065 155.87924,326.38733 C 154.88788,324.23401 153.89285,322.13159 152.89417,320.08014 C 151.89551,318.02869 150.89322,316.02808 149.88727,314.07849 C 148.88129,312.12891 147.8717,310.23022 146.85846,308.38245 C 145.85251,306.52734 144.82468,304.68048 143.77499,302.8418 C 142.72531,301.00317 141.65375,299.17261 140.56033,297.35034 C 139.46689,295.52802 138.35159,293.71387 137.21445,291.90796 C 136.07727,290.10199 134.91824,288.3042 133.73734,286.51465 C 133.73734,288.47156 133.73734,290.37299 133.73734,292.21893 C 133.73734,294.06488 133.73734,295.85535 133.73734,297.59039 C 133.73734,299.32544 133.73734,301.00494 133.73734,302.62903 C 133.73734,304.25311 133.73734,305.82172 133.73734,307.33484 C 133.73734,308.8407 133.76285,310.29199 133.81387,311.68872 C 133.8649,313.08551 133.94144,314.42767 134.04349,315.71533 C 134.24759,318.29053 134.55377,320.64758 134.96198,322.78632 C 135.38477,324.92505 135.76746,326.84558 136.11008,328.54785 C 136.45267,330.25012 136.75519,331.73419 137.01761,333 C 134.55377,333 132.08627,333 129.61511,333 C 127.14398,333 124.66919,333 122.19073,333 C 121.89917,330.73029 121.64038,328.37329 121.4144,325.92896 C 121.18845,323.48468 120.99527,320.95312 120.8349,318.33423 C 120.68909,315.71533 120.57977,313.11096 120.50687,310.52118 C 120.43396,307.9314 120.39752,305.35614 120.39752,302.79541 C 120.39752,300.33655 120.39752,297.94324 120.39752,295.6153 C 120.39752,293.28741 120.39752,291.02496 120.39752,288.828 C 120.39752,286.61652 120.46313,284.52136 120.59433,282.54266 C 120.72556,280.56396 120.92236,278.70166 121.18478,276.95569 C 121.4472,275.20978 121.72058,273.63843 122.00485,272.2417 C 122.28915,270.84497 122.58438,269.6228 122.89053,268.57526 C 124.94617,268.74982 127.00546,268.83716 129.06839,268.83716 C 131.13135,268.83716 133.19791,268.74982 135.26813,268.57526 C 136.06268,269.53552 136.9101,270.62036 137.81036,271.82977 C 138.7106,273.03918 139.6637,274.37317 140.66968,275.83179 C 141.67563,277.29034 142.73441,278.87354 143.84607,280.58124 C 144.95773,282.28894 146.12222,284.12128 147.33957,286.07819 C 148.55692,288.03503 149.79706,290.13837 151.05997,292.38806 C 151.69141,293.51294 152.32855,294.67438 152.97141,295.87244 C 153.61426,297.07043 154.26279,298.30511 154.91702,299.57642 C 155.57126,300.84766 156.23117,302.15552 156.89682,303.49994 C 157.56244,304.84436 158.23376,306.22546 158.91077,307.64313 C 159.58777,309.06079 160.27048,310.51501 160.95889,312.00586 C 161.64731,313.49677 162.3414,315.02417 163.0412,316.58826 C 163.0412,314.18036 163.01749,311.86517 162.97012,309.64276 C 162.92273,307.42029 162.85165,305.29065 162.7569,303.25378 C 162.66214,301.2168 162.54367,299.27271 162.40152,297.42126 C 162.2594,295.56982 162.09357,293.81116 161.90402,292.14526 C 161.71448,290.47937 161.52225,288.90167 161.32724,287.41217 C 161.13223,285.92267 160.93451,284.52136 160.73407,283.20831 C 160.33313,280.58215 159.92126,278.30878 159.49847,276.38831 C 158.68207,272.54724 158.12805,270.0011 157.83649,268.74982"
       id="path4" />
    <path
       stroke-width="0"
       fill="#000000"
       opacity="1"
       d="M 205.2912,333 C 202.90027,333 200.50565,333 198.10739,333 C 195.70914,333 193.30725,333 190.9017,333 C 190.55182,330.90491 190.37686,328.48969 190.37686,325.75439 C 190.37686,323.0191 190.37686,320.61847 190.37686,318.55243 C 190.37686,316.18091 190.46799,313.78387 190.65021,311.36139 C 190.83246,308.93896 191.10583,306.49097 191.47028,304.01758 C 191.84937,301.52966 192.37784,299.08167 193.05576,296.67377 C 193.7337,294.26587 194.56104,291.89795 195.53784,289.57007 C 196.52921,287.24213 197.70648,285.01605 199.06961,282.89185 C 200.43274,280.76764 201.98178,278.74524 203.71667,276.82477 C 205.46616,274.88965 207.45621,273.11462 209.6868,271.49963 C 210.80209,270.69214 211.97754,269.92468 213.2131,269.19727 C 214.44867,268.46973 215.74438,267.78229 217.10022,267.13489 C 219.52036,268.34247 221.74731,269.69922 223.78107,271.20508 C 225.81485,272.71094 227.65546,274.36591 229.30289,276.17004 C 230.95032,277.95959 232.43738,279.86194 233.76407,281.87708 C 235.09076,283.89209 236.25708,286.01996 237.26303,288.26062 C 238.26898,290.50122 239.13278,292.82184 239.85446,295.22247 C 240.57611,297.62317 241.15564,300.10376 241.59302,302.66449 C 242.03036,305.22522 242.3584,307.82593 242.57709,310.46661 C 242.79578,313.1073 242.90512,315.78809 242.90512,318.50879 C 242.90512,320.45837 242.90512,322.58264 242.90512,324.88147 C 242.90512,326.0163 242.8468,327.2821 242.73016,328.67883 C 242.61353,330.07556 242.4386,331.60327 242.20532,333.2619 C 240.86404,333.08728 239.27493,333 237.43799,333 C 235.63019,333 233.83698,333 232.05832,333 C 230.30884,333 228.82178,333.08728 227.59714,333.2619 C 228.0928,331.6615 228.54477,330.04651 228.95297,328.41693 C 229.36121,326.7583 229.56531,324.85229 229.56531,322.69904 C 229.56531,319.9928 228.7926,318.07233 227.24725,316.9375 C 225.70184,315.7735 223.22342,315.19153 219.81192,315.19153 C 216.92529,315.19153 214.25732,315.52612 211.80804,316.19543 C 209.38794,316.86475 207.43433,317.91223 205.94727,319.33813 C 204.46021,320.76392 203.71667,322.58264 203.71667,324.79413 C 203.71667,326.19092 203.8479,327.55853 204.11032,328.89709 C 204.40192,330.2356 204.79553,331.60327 205.2912,333 M 203.71667,307.98956 C 205.84521,307.23303 208.22162,306.56372 210.84583,305.98175 C 212.15793,305.67621 213.61951,305.44708 215.23047,305.29431 C 216.84143,305.14154 218.60187,305.06519 220.51172,305.06519 C 221.94046,305.06519 223.45667,305.12335 225.06036,305.23975 C 226.66406,305.35614 228.16571,305.57434 229.56531,305.89447 C 229.56531,303.18823 229.27737,300.6167 228.70148,298.17963 C 228.12561,295.74261 227.26181,293.44019 226.11008,291.27234 C 224.9729,289.10449 223.64621,287.16937 222.13,285.4671 C 220.61377,283.76483 218.90802,282.29529 217.01276,281.05859 C 215.48196,282.12073 214.086,283.31738 212.82492,284.64868 C 211.56384,285.97998 210.43762,287.4458 209.44623,289.04626 C 208.46945,290.63214 207.62021,292.23987 206.89856,293.86938 C 206.17688,295.4989 205.58279,297.15027 205.11627,298.82349 C 204.64972,300.49664 204.29984,302.09705 204.06659,303.62476 C 203.83331,305.15247 203.71667,306.60742 203.71667,307.98956"
       id="path6" />
    <path
       stroke-width="0"
       fill="#000000"
       opacity="1"
       d="M 277.19943,294.40134 C 277.61017,295.57199 278.13431,297.13474 278.603,298.92001 C 278.94827,301.96185 277.90817,304.32037 276.31223,306.30505 C 276.13403,306.76447 275.26471,301.37442 276.37515,304.50854 C 276.56094,307.60284 276.59491,307.66498 277.23135,309.8522 C 278.017,312.31039 278.21039,313.448 276.9545,316.83539 C 276.96204,319.39105 276.77081,321.40591 276.74463,322.4823 C 276.29874,324.10999 275.84427,325.36414 276.01346,334.13489 C 273.82397,325.22345 273.13568,324.61646 272.84235,324.53357 C 272.74374,324.49316 273.22128,323.9696 271.7323,323.97012 C 271.59082,322.20303 272.14429,319.35309 268.85278,318.13785 C 268.98993,315.42538 269.02029,314.68411 268.9628,314.18341 C 268.59232,313.18893 268.5112,313.02362 266.50723,311.27179 C 267.49362,306.64801 267.44876,306.3963 264.71164,304.06384 C 265.40714,301.37204 266.29315,299.87372 266.9288,298.68109 C 266.69815,301.36102 266.37524,299.60953 266.07849,298.51862 C 264.10278,295.72031 264.21887,296.36127 266.67636,291.64413 C 266.84729,290.96213 266.13354,287.55783 266.72473,286.64752 C 267.98154,284.65829 268.31808,284.04901 268.86783,282.78577 C 269.75949,280.36856 270.3298,279.0036 271.30759,277.1228 C 267.39069,279.61667 266.95239,279.70367 265.68024,280.68341 C 262.45358,281.93289 262.03491,281.82617 258.61139,281.30188 C 256.76801,281.21536 254.42737,281.91339 250.60284,283.5545 C 253.94208,279.20325 254.95293,277.5329 255.49692,276.26257 C 255.50293,276.20959 258.60947,275.83722 258.20486,273.53247 C 259.28745,272.70718 260.24118,272.29651 261.43472,272.71704 C 265.5491,271.60715 261.74933,270.46426 263.5289,269.92365 C 264.93616,269.81265 267.33783,270.06323 269.9859,268.74982 C 273.34396,269.16055 276.39227,272.11536 276.26837,271.88162 C 279.37201,269.66864 279.48615,269.70248 282.70514,269.01031 C 284.98303,269.93896 285.17377,270.00812 285.43912,270.14462 C 287.74066,270.31421 287.88113,270.36249 290.14639,271.21237 C 292.14413,272.74597 292.49207,273.06195 298.27628,274.33517 C 292.41516,276.98911 292.25354,277.19174 286.1102,277.37579 C 287.0657,280.81339 287.49719,282.55692 291.44873,286.67957 C 286.43726,284.80853 284.31308,284.20078 283.33832,284.18811 C 283.19455,284.241 281.4968,282.95557 280.48376,282.30573 C 280.17838,282.14746 278.88986,279.97372 278.42627,279.7121 C 277.73065,281.15909 277.55298,282.36444 278.86893,287.00116 C 278.60968,290.71933 277.19818,293.38657 278.32074,289.17062 C 277.17355,293.5119 276.86295,290.85294 276.76578,293.04044 C 276.78781,293.15201 276.79993,293.2171 277.19943,294.40134"
       id="path8" />
    <path
       stroke-width="0"
       fill="#000000"
       opacity="1"
       d="M 338.55811,268.74982 C 340.75958,268.74982 342.95374,268.74982 345.14056,268.74982 C 347.32739,268.74982 349.50696,268.74982 351.67926,268.74982 C 352.2041,270.69946 352.69983,273.39111 353.16632,276.82477 C 353.3996,278.52704 353.61462,280.36023 353.81146,282.32446 C 354.00824,284.28857 354.18689,286.38373 354.34723,288.60974 C 354.52216,290.82129 354.65338,293.13098 354.74084,295.53894 C 354.82831,297.94684 354.87207,300.453 354.87207,303.05737 C 354.87207,306.11267 354.68982,308.96436 354.32532,311.61237 C 353.96088,314.26038 353.41418,316.70471 352.68518,318.94531 C 351.97083,321.17133 350.98315,323.15002 349.72205,324.88147 C 348.46094,326.61279 346.92651,328.09686 345.11871,329.33356 C 343.31091,330.55566 341.14587,331.47229 338.62372,332.08337 C 336.10156,332.69446 333.22223,333 329.98566,333 C 325.84521,333 322.22235,332.39984 319.117,331.19952 C 316.01166,329.99915 313.42389,328.19873 311.35367,325.79803 C 309.28345,323.3974 307.73077,320.37109 306.69568,316.71924 C 306.1781,314.89331 305.78992,312.91089 305.53116,310.77216 C 305.2724,308.63342 305.14301,306.33826 305.14301,303.88666 C 305.14301,301.48596 305.19037,299.13263 305.28516,296.82654 C 305.37988,294.52051 305.52203,292.26166 305.71158,290.05017 C 305.91568,287.8241 306.138,285.69629 306.37857,283.66663 C 306.61914,281.63696 306.8779,279.70557 307.15491,277.87231 C 307.70889,274.20587 308.24832,271.16504 308.77319,268.74982 C 311.09125,268.74982 313.41296,268.74982 315.73831,268.74982 C 318.06366,268.74982 320.39264,268.74982 322.72531,268.74982 C 322.55035,269.71008 322.25879,271.35419 321.85059,273.68207 C 321.4715,275.9809 321.06329,278.71619 320.62592,281.88794 C 320.18854,285.03064 319.82407,288.43518 319.5325,292.10162 C 319.27008,295.73901 319.13885,299.41998 319.13885,303.14465 C 319.13885,306.53467 319.37213,309.43359 319.83865,311.84155 C 320.30518,314.24945 321.00497,316.16638 321.93805,317.59216 C 323.83331,320.41479 326.5304,321.82605 330.02942,321.82605 C 332.82855,321.82605 335.05914,321.24408 336.72119,320.08014 C 338.38318,318.88708 339.59326,316.90833 340.35132,314.14398 C 341.13861,311.35046 341.53223,307.62585 341.53223,302.97003 C 341.53223,300.24927 341.4776,297.61584 341.36823,295.0697 C 341.25891,292.52356 341.09485,290.0647 340.87622,287.69312 C 340.67212,285.32159 340.45703,283.12463 340.23108,281.10229 C 340.00513,279.0799 339.76819,277.23218 339.52039,275.55896 C 339.05383,272.21259 338.73309,269.94287 338.55811,268.74982"
       id="path10" />
    <path
       stroke-width="0"
       fill="#000000"
       opacity="1"
       d="M 418.9469,333 C 414.77728,333 411.39502,332.49078 408.79993,331.47229 C 406.23401,330.45386 404.09088,328.98437 402.37054,327.06384 C 400.65021,325.14331 398.98822,322.81543 397.38452,320.08014 C 396.56812,318.62518 395.76624,317.31573 394.979,316.15179 C 394.22083,314.98785 393.33154,314.07123 392.31104,313.40198 C 391.31964,312.73267 390.02209,312.39807 388.41846,312.39807 C 386.72729,312.39807 385.3714,312.8927 384.35083,313.88208 C 383.3595,314.87146 382.86377,316.47186 382.86377,318.68335 C 382.86377,320.80762 383.1554,323.15002 383.73853,325.71075 C 384.32172,328.24231 384.89026,330.67212 385.44434,333 C 382.96582,333 380.48743,333 378.00903,333 C 375.53052,333 373.05212,333 370.57367,333 C 370.22375,331.21045 369.96136,329.32629 369.78638,327.34753 C 369.61145,325.36884 369.52399,323.29553 369.52399,321.12769 C 369.52399,318.95984 369.52399,316.73376 369.52399,314.44952 C 369.52399,312.16528 369.52399,309.82281 369.52399,307.42212 C 369.52399,304.64319 369.5896,301.77332 369.72083,298.8125 C 369.85205,295.85175 370.04883,292.79999 370.31128,289.65735 C 370.57367,286.50012 370.92725,283.24469 371.37189,279.89105 C 371.81653,276.53741 372.35229,273.08557 372.97925,269.53552 C 374.29132,269.3609 375.88049,269.18628 377.74658,269.01172 C 379.64185,268.83716 381.58081,268.74982 383.5636,268.74982 C 385.5755,268.74982 387.42706,268.74982 389.11816,268.74982 C 390.80933,268.74982 392.10693,268.74982 393.0108,268.74982 C 395.62048,268.74982 398.08069,268.8808 400.39148,269.1427 C 402.70227,269.40454 404.86353,269.79736 406.87549,270.32117 C 410.89929,271.36871 414.07751,273.15833 416.41016,275.68994 C 418.7428,278.19238 419.90912,281.6261 419.90912,285.99084 C 419.90912,288.02783 419.62122,289.96289 419.04529,291.79608 C 418.46948,293.62927 417.60565,295.36072 416.45386,296.99023 C 415.30212,298.60522 413.85522,300.22748 412.11298,301.85699 C 410.37079,303.48657 408.33337,305.12335 406.00073,306.76746 C 407.86682,310.52118 409.83496,313.50378 411.90527,315.71533 C 413.97546,317.92682 416.39557,319.03259 419.16559,319.03259 C 419.95288,319.03259 420.74011,318.93073 421.5274,318.72705 C 421.74609,321.1568 422.04858,323.56104 422.43494,325.93994 C 422.82129,328.31873 423.2915,330.67212 423.84546,333 C 423.05823,333 422.22717,333 421.35242,333 C 420.50684,333 419.70502,333 418.9469,333 M 381.85785,302.27167 C 384.03015,302.27167 386.11133,302.09344 388.10132,301.73694 C 390.09137,301.38049 391.99023,300.84583 393.7981,300.13293 C 397.44287,298.70703 400.37323,296.81567 402.58923,294.45862 C 404.80524,292.10162 405.91321,289.52637 405.91321,286.73291 C 405.91321,283.88123 404.70319,281.85889 402.28308,280.66577 C 399.89209,279.47278 396.80139,278.87622 393.0108,278.87622 C 391.34882,278.87622 389.83258,278.99261 388.46216,279.2254 C 387.12085,279.45819 386.17322,279.79285 385.61926,280.22931 C 384.36548,281.26233 383.42511,283.61572 382.79822,287.28943 C 382.48474,289.12628 382.24963,291.29321 382.0929,293.79028 C 381.93622,296.28729 381.85785,299.11444 381.85785,302.27167"
       id="path12" />
    <path
       stroke-width="0"
       fill="#000000"
       opacity="1"
       d="M 438.19122,269.01172 C 440.08655,268.83716 442.73987,268.74982 446.15137,268.74982 C 449.59204,268.74982 453.25134,268.74982 457.12939,268.74982 C 461.53223,268.74982 465.81848,268.74982 469.9881,268.74982 C 474.18689,268.74982 477.59839,268.83716 480.22253,269.01172 C 479.78516,270.99048 479.33325,273.07104 478.8667,275.25342 C 478.42932,277.40674 478.07947,279.54553 477.81702,281.66968 C 476.47571,281.29138 474.69714,280.89856 472.48108,280.49121 C 470.26514,280.05469 467.84497,279.67645 465.2207,279.35632 C 462.62567,279.03625 460.01599,278.87622 457.39185,278.87622 C 455.61316,278.87622 454.22815,278.99261 453.23682,279.2254 C 452.27454,279.42908 451.47272,279.80737 450.83124,280.36023 C 450.21893,280.91315 449.70868,281.80066 449.30042,283.02283 C 448.89221,284.24493 448.58606,285.61261 448.38196,287.12573 C 448.17786,288.60974 448.07581,290.07922 448.07581,291.53418 C 448.07581,292.37805 448.26538,292.98914 448.64441,293.36743 C 449.05261,293.71661 449.73779,293.89124 450.70007,293.89124 C 452.42041,293.89124 454.47601,293.65845 456.86694,293.19287 C 459.25793,292.69812 462.0863,292.45081 465.35193,292.45081 C 467.15979,292.45081 468.76343,292.52356 470.16302,292.66907 C 471.56262,292.81458 472.71436,293.01825 473.61829,293.28015 C 473.06421,295.37524 472.49567,297.51404 471.91254,299.69641 C 471.35852,301.84973 470.86279,304.04669 470.42548,306.28729 C 468.61768,305.76355 466.70776,305.25427 464.69592,304.75964 C 462.68396,304.26489 460.36597,304.01758 457.7417,304.01758 C 453.98035,304.01758 451.2832,304.71594 449.65033,306.11267 C 448.04663,307.48035 447.24481,310.02649 447.24481,313.7511 C 447.24481,316.34094 447.43433,318.29053 447.81335,319.59998 C 448.22162,320.90942 448.96515,321.78241 450.04395,322.21887 C 451.15198,322.6554 452.71191,322.87366 454.72388,322.87366 C 457.9021,322.87366 460.9928,322.64087 463.99609,322.17523 C 466.99939,321.68054 469.74023,321.05493 472.21869,320.29834 C 474.72626,319.54181 476.81104,318.81433 478.47308,318.11597 C 478.76465,320.64758 479.05627,323.16461 479.34784,325.66711 C 479.66858,328.1405 480.01843,330.58484 480.39752,333 C 477.04431,333 473.44336,333 469.59448,333 C 465.77478,333 461.98419,333 458.22278,333 C 453.67419,333 449.28589,333 445.05798,333 C 440.83008,333 437.11243,333 433.90503,333 C 433.90503,330.70117 433.90503,328.30054 433.90503,325.79803 C 433.90503,323.26648 433.90503,320.64758 433.90503,317.94141 C 433.90503,312.6745 433.90503,307.26208 433.90503,301.70422 C 433.90503,296.11725 434.28406,290.53027 435.04211,284.94336 C 435.82947,279.35632 436.87915,274.04584 438.19122,269.01172"
       id="path14" />
  </g>
</svg>
