<?xml version="1.0" encoding="UTF-8" standalone="no"?>
<svg
   version="1.1"
   width="359.09344"
   height="83"
   id="svg209"
   xmlns="http://www.w3.org/2000/svg"
   xmlns:svg="http://www.w3.org/2000/svg">
  <defs
     id="defs195" />
  <g
     id="g207"
     transform="translate(-120.13797,-259.01562)">
    <path
       stroke-width="0"
       fill="#000000"
       opacity="1"
       d="M 188.8082,278.17358 C 188.8082,282.56287 187.60727,286.46643 185.20544,289.88428 C 182.84003,293.30212 179.60123,296.14435 175.48901,298.41089 C 178.14557,300.13782 180.25626,302.2605 181.82108,304.77893 C 183.38589,307.26135 184.1683,309.99567 184.1683,312.98181 C 184.1683,316.57953 183.04019,320.12329 180.78394,323.61316 C 178.52768,327.10291 175.5072,330.19702 171.72253,332.89532 C 167.93784,335.59363 163.62549,337.77026 158.78546,339.42523 C 153.98181,341.0802 149.069,341.90771 144.047,341.90771 C 138.58832,341.90771 133.82108,340.86432 129.74527,338.77759 C 125.66943,336.69092 122.46701,333.74078 120.13797,329.92719 C 120.82941,327.91248 121.75739,325.41199 122.92191,322.4259 C 124.08643,319.40381 125.36011,316.21973 126.74298,312.8739 C 128.16223,309.52795 129.58151,306.20007 131.00076,302.89014 C 132.42001,299.5802 133.76648,296.61206 135.04019,293.98572 C 137.69675,288.22931 140.06216,283.46228 142.13647,279.68469 C 144.24716,275.90698 146.1759,272.90289 147.92267,270.6723 C 144.06519,271.89551 140.57166,273.2627 137.44202,274.77374 C 134.31235,276.28479 132.00153,277.75989 130.50949,279.19897 C 129.89084,278.76721 129.25397,278.13763 128.59894,277.31018 C 127.94391,276.44666 127.30707,275.51123 126.68842,274.50391 C 126.10614,273.46057 125.61487,272.41724 125.21457,271.3739 C 124.85065,270.29456 124.63229,269.32312 124.55951,268.45972 C 126.37909,267.20044 128.72632,265.99524 131.60123,264.84393 C 134.51251,263.65668 137.67853,262.64929 141.0993,261.82184 C 144.52008,260.95837 148.03183,260.27478 151.63458,259.77112 C 155.2373,259.26746 158.67627,259.01562 161.95148,259.01562 C 170.35785,259.01562 176.92645,260.70654 181.65732,264.08844 C 186.42456,267.47034 188.8082,272.16541 188.8082,278.17358 M 148.85065,303.32184 C 147.54056,302.71021 146.32147,301.79285 145.19333,300.56958 C 143.5921,303.87952 142.06369,307.11743 140.60803,310.28345 C 139.18878,313.44946 137.9151,316.38165 136.78696,319.07996 C 135.69522,321.77832 134.78543,324.13477 134.05762,326.14954 C 133.36618,328.16431 132.98407,329.62134 132.91129,330.52081 C 133.89386,331.02454 135.05838,331.42029 136.40485,331.70807 C 137.78772,331.9599 139.49811,332.08582 141.53601,332.08582 C 146.26688,332.08582 150.79758,331.47424 155.12811,330.25098 C 159.49506,329.02771 163.31616,327.3728 166.59137,325.28607 C 169.86658,323.16345 172.48672,320.75293 174.45184,318.05463 C 176.41699,315.32031 177.39954,312.46008 177.39954,309.474 C 177.39954,305.19269 175.39804,302.11658 171.39499,300.24579 C 165.93631,302.44043 159.78619,303.53772 152.94464,303.53772 C 151.9621,303.53772 151.19788,303.53772 150.65201,303.53772 C 150.14252,303.53772 149.54208,303.46576 148.85065,303.32184 M 169.21152,266.46295 C 167.71948,266.46295 166.15466,266.57086 164.51706,266.78674 C 162.87946,267.00256 161.15088,267.34436 159.3313,267.81213 C 159.62244,268.09991 159.85898,268.40576 160.04095,268.72949 C 160.2229,269.01733 160.36847,269.32312 160.47763,269.64697 C 159.85898,270.51038 159.09479,271.76965 158.185,273.42456 C 157.27521,275.04358 156.25626,276.93237 155.12811,279.09106 C 154.03638,281.24963 152.87189,283.66016 151.63458,286.32251 C 150.43365,288.94885 149.19635,291.64716 147.92267,294.41742 C 149.1236,294.16559 150.57922,293.96771 152.28961,293.82379 C 154,293.64392 155.6922,293.55396 157.36618,293.55396 C 158.27597,293.55396 159.16754,293.58997 160.04095,293.66187 C 160.91434,293.69788 161.76953,293.76984 162.60651,293.87775 C 165.95453,293.30212 168.97498,292.45667 171.66794,291.34131 C 174.3609,290.22607 176.67172,288.94885 178.60046,287.50977 C 180.56558,286.03467 182.07581,284.39771 183.13116,282.59882 C 184.18652,280.79993 184.71417,278.89319 184.71417,276.87842 C 184.71417,273.46057 183.38589,270.87018 180.72934,269.1073 C 178.07278,267.34436 174.23352,266.46295 169.21152,266.46295"
       id="path197" />
    <path
       stroke-width="0"
       fill="#000000"
       opacity="1"
       d="M 233.67853,264.62805 C 230.6217,268.65759 227.81958,273.08276 225.27219,277.90381 C 222.76117,282.72473 220.61411,287.67163 218.83093,292.74451 C 217.08417,297.81726 215.73767,302.83618 214.7915,307.80103 C 213.84534,312.72998 213.37225,317.33508 213.37225,321.61639 C 213.37225,326.94104 214.17285,330.79065 215.77408,333.16516 C 217.37531,335.53967 220.14102,336.72693 224.07126,336.72693 C 228.58377,336.72693 232.55042,335.17993 235.97119,332.08582 C 239.42834,328.95581 242.64899,324.65649 245.63306,319.18787 C 247.59821,315.6261 249.27219,311.7406 250.65503,307.53125 C 252.07428,303.28589 253.22064,298.93262 254.09399,294.47137 C 254.96741,289.97424 255.60425,285.45905 256.00455,280.9259 C 256.44122,276.35675 256.65961,271.98547 256.65961,267.81213 C 256.65961,265.14978 256.6232,263.20697 256.55042,261.98376 C 256.47766,260.7605 256.36847,259.77112 256.2229,259.01562 C 256.44122,259.01562 256.96893,259.08752 257.80591,259.23145 C 258.64291,259.37537 259.58911,259.57324 260.64441,259.82507 C 261.73615,260.04095 262.82788,260.3468 263.91962,260.74255 C 265.01135,261.10229 265.93933,261.51605 266.70355,261.98376 C 266.33966,267.16449 265.6846,272.50714 264.73843,278.01172 C 263.82867,283.51624 262.59137,288.9668 261.02655,294.36346 C 259.49811,299.72412 257.71494,304.88684 255.67703,309.85175 C 253.67551,314.81665 251.41925,319.27783 248.90826,323.23535 C 245.19635,329.09973 241.02957,333.66882 236.4079,336.94275 C 231.78619,340.25269 226.34573,341.90771 220.08643,341.90771 C 213.6452,341.90771 208.64139,340.10876 205.07507,336.51105 C 201.50873,332.91333 199.72556,327.4447 199.72556,320.10535 C 199.72556,315.896 200.21683,311.12897 201.1994,305.80432 C 202.18195,300.44366 203.49203,294.99304 205.12964,289.45251 C 206.76724,283.87604 208.65961,278.46143 210.80667,273.20874 C 212.99014,267.92004 215.26459,263.18896 217.63004,259.01562 C 218.83093,259.01562 220.23199,259.1955 221.83319,259.5553 C 223.43442,259.87903 224.99924,260.3288 226.52768,260.90442 C 228.0925,261.44409 229.51175,262.05566 230.78546,262.73926 C 232.09552,263.42285 233.05991,264.05249 233.67853,264.62805"
       id="path199" />
    <path
       stroke-width="0"
       fill="#000000"
       opacity="1"
       d="M 276.14709,342.01562 C 272.14404,340.86432 269.45111,339.74902 268.06824,338.66968 C 266.68536,337.62634 265.99396,336.18726 265.99396,334.35242 C 265.99396,332.3017 266.46704,329.42346 267.41321,325.71777 C 268.39575,322.01215 269.66943,317.8927 271.23425,313.35956 C 272.83548,308.79041 274.63684,304.02344 276.63837,299.05853 C 278.67627,294.09363 280.73236,289.3446 282.80667,284.8114 C 284.91736,280.24231 286.97345,276.06891 288.97498,272.29126 C 290.9765,268.51367 292.74146,265.56348 294.2699,263.4408 C 294.03339,261.96576 293.79681,260.49072 293.56027,259.01562 C 294.50644,259.01562 295.85291,259.26746 297.5997,259.77112 C 299.3465,260.23883 301.11145,260.81445 302.89462,261.49805 C 304.6778,262.18164 306.24261,262.90118 307.58908,263.65668 C 308.97195,264.37622 309.73615,264.96985 309.88171,265.43762 C 309.51782,267.05658 309.22668,269.521 309.00836,272.83093 C 308.82639,276.14087 308.73541,279.66663 308.73541,283.40833 C 308.73541,290.8197 309.02655,298.08716 309.6088,305.21069 C 310.22745,312.33423 311.61032,319.56567 313.75739,326.90503 C 314.88553,321.47247 316.08643,316.05786 317.36011,310.66125 C 318.67023,305.22864 320.01672,300.04791 321.39954,295.11902 C 322.81879,290.19006 324.21985,285.62097 325.60272,281.41156 C 326.9856,277.16626 328.3139,273.46057 329.58759,270.29456 C 330.89764,267.12854 332.11676,264.64612 333.24487,262.84717 C 334.37299,261.04834 335.39197,260.0769 336.30176,259.93304 C 337.06598,260.0769 337.90295,260.36475 338.81274,260.79651 C 339.72253,261.22821 340.59589,261.76788 341.43292,262.41547 C 342.2699,263.0271 343.03412,263.71069 343.72559,264.46619 C 344.41699,265.18573 344.98108,265.92328 345.41772,266.67883 C 343.1615,267.57825 340.94165,269.66492 338.75818,272.93884 C 336.57471,276.17688 334.48218,280.1344 332.48065,284.8114 C 330.47913,289.45251 328.62317,294.50739 326.91284,299.97595 C 325.20245,305.40857 323.6922,310.76917 322.38208,316.05786 C 321.1084,321.31055 320.10767,326.18555 319.37982,330.68274 C 318.65204,335.17993 318.25171,338.77759 318.17896,341.47595 C 318.17896,341.61987 318.21533,341.72778 318.28809,341.79974 C 318.06976,341.8717 317.83322,341.90771 317.57849,341.90771 C 317.32373,341.90771 317.10538,341.90771 316.92343,341.90771 C 313.68463,341.90771 310.82788,341.51196 308.3533,340.72046 C 305.87872,339.9649 304.25928,338.86755 303.49506,337.42847 C 302.03943,331.70807 300.82031,326.20349 299.83777,320.91479 C 298.85519,315.59015 298.01819,310.28345 297.32678,304.99481 C 296.67172,299.67017 296.14404,294.30951 295.74374,288.91284 C 295.37982,283.48029 295.08868,277.81384 294.87036,271.91351 C 293.56027,273.96423 292.15921,276.64453 290.66718,279.95447 C 289.21152,283.22839 287.79227,286.84418 286.40942,290.8017 C 285.02655,294.72327 283.68005,298.86066 282.37,303.21393 C 281.09631,307.5672 279.96814,311.83051 278.9856,316.00391 C 278.00305,320.1413 277.22064,324.06287 276.63837,327.76855 C 276.0925,331.47424 275.81958,334.69421 275.81958,337.42847 C 275.81958,338.86755 275.83777,339.89294 275.87415,340.50452 C 275.91055,341.11621 276.00153,341.61987 276.14709,342.01562"
       id="path201" />
    <path
       stroke-width="0"
       fill="#000000"
       opacity="1"
       d="M 346.01819,342.01562 C 342.01514,340.86432 339.3222,339.74902 337.93933,338.66968 C 336.55646,337.62634 335.86505,336.18726 335.86505,334.35242 C 335.86505,332.3017 336.33813,329.42346 337.2843,325.71777 C 338.26685,322.01215 339.54059,317.8927 341.10541,313.35956 C 342.7066,308.79041 344.508,304.02344 346.50946,299.05853 C 348.54736,294.09363 350.60352,289.3446 352.6778,284.8114 C 354.78845,280.24231 356.8446,276.06891 358.84607,272.29126 C 360.8476,268.51367 362.61255,265.56348 364.14099,263.4408 C 363.90448,261.96576 363.66797,260.49072 363.4314,259.01562 C 364.37756,259.01562 365.724,259.26746 367.47083,259.77112 C 369.21759,260.23883 370.98254,260.81445 372.76575,261.49805 C 374.54889,262.18164 376.11377,262.90118 377.46021,263.65668 C 378.84308,264.37622 379.6073,264.96985 379.75281,265.43762 C 379.38892,267.05658 379.09778,269.521 378.87946,272.83093 C 378.69751,276.14087 378.60657,279.66663 378.60657,283.40833 C 378.60657,290.8197 378.89771,298.08716 379.47992,305.21069 C 380.09857,312.33423 381.48145,319.56567 383.62854,326.90503 C 384.75659,321.47247 385.95752,316.05786 387.2312,310.66125 C 388.54132,305.22864 389.88782,300.04791 391.27063,295.11902 C 392.68994,290.19006 394.09094,285.62097 395.47388,281.41156 C 396.85669,277.16626 398.185,273.46057 399.45868,270.29456 C 400.7688,267.12854 401.98792,264.64612 403.11597,262.84717 C 404.24414,261.04834 405.26306,260.0769 406.17285,259.93304 C 406.93707,260.0769 407.77405,260.36475 408.68384,260.79651 C 409.59363,261.22821 410.46704,261.76788 411.30402,262.41547 C 412.14099,263.0271 412.90527,263.71069 413.59668,264.46619 C 414.28809,265.18573 414.85217,265.92328 415.28882,266.67883 C 413.03259,267.57825 410.81274,269.66492 408.62927,272.93884 C 406.4458,276.17688 404.35327,280.1344 402.35181,284.8114 C 400.35028,289.45251 398.49432,294.50739 396.78394,299.97595 C 395.07355,305.40857 393.56335,310.76917 392.25323,316.05786 C 390.97949,321.31055 389.97876,326.18555 389.25098,330.68274 C 388.52313,335.17993 388.1228,338.77759 388.05005,341.47595 C 388.05005,341.61987 388.08643,341.72778 388.15918,341.79974 C 387.94086,341.8717 387.70435,341.90771 387.44958,341.90771 C 387.19482,341.90771 386.9765,341.90771 386.79456,341.90771 C 383.55573,341.90771 380.69904,341.51196 378.22443,340.72046 C 375.74982,339.9649 374.13037,338.86755 373.36621,337.42847 C 371.91052,331.70807 370.69141,326.20349 369.70886,320.91479 C 368.72632,315.59015 367.88928,310.28345 367.19788,304.99481 C 366.54285,299.67017 366.01514,294.30951 365.61487,288.91284 C 365.25098,283.48029 364.95984,277.81384 364.74146,271.91351 C 363.4314,273.96423 362.03033,276.64453 360.53827,279.95447 C 359.08264,283.22839 357.66339,286.84418 356.28052,290.8017 C 354.89764,294.72327 353.55115,298.86066 352.24109,303.21393 C 350.96741,307.5672 349.83929,311.83051 348.85669,316.00391 C 347.87415,320.1413 347.09174,324.06287 346.50946,327.76855 C 345.96362,331.47424 345.69067,334.69421 345.69067,337.42847 C 345.69067,338.86755 345.70886,339.89294 345.74524,340.50452 C 345.78162,341.11621 345.87268,341.61987 346.01819,342.01562"
       id="path203" />
    <path
       stroke-width="0"
       fill="#000000"
       opacity="1"
       d="M 439.74005,299.79379 C 441.47995,296.79767 443.6543,292.61249 446.31711,288.37592 C 448.94528,284.60043 451.12961,281.72324 454.56445,279.14691 C 457.64197,276.52686 460.97083,273.78528 466.32767,272.3302 C 468.58908,271.29236 470.39801,270.46115 472.96173,269.88226 C 474.53589,269.17664 478.5657,267.0975 478.86774,266.69061 C 479.29099,266.75128 480.138,266.94098 475.87378,266.39606 C 476.87161,266.44965 477.48563,266.44196 478.36423,266.4505 C 479.20041,270.02692 476.84805,273.42078 473.84424,274.00507 C 471.87656,274.64301 470.28976,275.3996 468.41379,276.87277 C 467.65588,277.73901 466.30753,280.93802 464.83456,282.79175 C 463.21719,284.96402 461.58398,286.56467 459.82162,287.97223 C 456.64288,291.18823 453.22235,294.02856 449.59088,296.6362 C 446.0224,298.86801 444.63977,300.63846 444.56653,302.07874 C 453.10562,309.57193 451.18311,313.7305 442.67316,314.76892 C 447.38846,325.70694 445.19147,328.30026 442.49933,331.16888 C 439.4595,334.22086 439.38095,334.36169 438.92227,335.75705 C 435.23663,335.48758 435.056,335.53851 445.25616,336.52759 C 445.11224,341.90771 434.52902,338.92203 432.45428,339.56921 C 431.49121,339.72232 430.00073,339.97809 426.84454,339.66071 C 423.19135,339.52966 422.93527,339.51465 422.17932,338.80487 C 421.14618,338.01135 420.46939,337.50732 421.22839,337.63129 C 422.22708,335.74554 419.20609,335.25043 419.3912,329.65121 C 420.11542,326.83606 421.65173,323.20648 424.79105,320.01727 C 427.96021,316.59296 430.39633,314.71362 432.29312,312.67734 C 431.22971,305.96497 431.29413,305.90262 433.49142,303.10498 C 433.40222,301.35843 432.94089,300.25668 431.85388,298.71524 C 430.81189,296.63937 429.46463,294.33401 428.2572,291.9389 C 426.81235,289.55896 425.8067,287.19348 425.13434,285.05045 C 424.09665,282.93643 423.17032,280.82886 422.60773,278.31277 C 421.72382,274.5748 420.30405,270.98236 419.01044,263.18143 C 419.75821,262.47647 418.72751,262.65393 417.85443,262.69272 C 417.8942,262.57416 417.98917,262.1568 418.09891,261.72998 C 418.30042,261.13007 418.73019,259.84012 420.19037,259.20221 C 421.73157,259.01562 421.63614,259.5397 422.15732,259.57874 C 423.86133,259.79819 426.04941,262.57608 426.76688,263.28891 C 425.59338,264.21518 428.98663,265.04675 429.48639,267.27951 C 430.39587,269.53851 431.25949,271.46445 432.75195,274.55603 C 433.78632,277.47565 434.5748,280.8223 435.17105,283.67496 C 436.04581,286.41055 436.48865,289.32019 436.77472,292.08264 C 437.10123,294.12531 437.52933,295.92661 437.77814,297.84561 C 438.4863,298.76514 439.00125,299.34729 439.74005,299.79379"
       id="path205" />
  </g>
</svg>
